HIERARCHY
ROOT Hips
{
	OFFSET 0.000000 0.000000 0.000000
	CHANNELS 6 Xposition Yposition Zposition Zrotation Yrotation Xrotation 
	JOINT LHipJoint
	{
		OFFSET 0.000000 0.000000 0.000000
		CHANNELS 3 Zrotation Yrotation Xrotation
		JOINT LeftUpLeg
		{
			OFFSET 1.363060 -1.794630 0.839290
			CHANNELS 3 Zrotation Yrotation Xrotation
			JOINT LeftLeg
			{
				OFFSET 2.448110 -6.726130 0.000000
				CHANNELS 3 Zrotation Yrotation Xrotation
				JOINT LeftFoot
				{
					OFFSET 2.562200 -7.039590 0.000000
					CHANNELS 3 Zrotation Yrotation Xrotation
					JOINT LeftToeBase
					{
						OFFSET 0.157640 -0.433110 2.322550
						CHANNELS 3 Zrotation Yrotation Xrotation
						End Site
						{
							OFFSET 0.000000 0.000000 0.000000
						}
					}
				}
			}
		}
	}
	JOINT RHipJoint
	{
		OFFSET 0.000000 0.000000 0.000000
		CHANNELS 3 Zrotation Yrotation Xrotation
		JOINT RightUpLeg
		{
			OFFSET -1.305520 -1.794630 0.839290
			CHANNELS 3 Zrotation Yrotation Xrotation
			JOINT RightLeg
			{
				OFFSET -2.542530 -6.985550 0.000000
				CHANNELS 3 Zrotation Yrotation Xrotation
				JOINT RightFoot
				{
					OFFSET -2.568260 -7.056230 0.000000
					CHANNELS 3 Zrotation Yrotation Xrotation
					JOINT RightToeBase
					{
						OFFSET -0.164730 -0.452590 2.363150
						CHANNELS 3 Zrotation Yrotation Xrotation
						End Site
						{
							OFFSET 0.000000 0.000000 0.000000
						}
					}
				}
			}
		}
	}
	JOINT LowerBack
	{
		OFFSET 0.000000 0.000000 0.000000
		CHANNELS 3 Zrotation Yrotation Xrotation
		JOINT Spine
		{
			OFFSET 0.028270 2.035590 -0.193380
			CHANNELS 3 Zrotation Yrotation Xrotation
			JOINT Spine1
			{
				OFFSET 0.056720 2.048850 -0.042750
				CHANNELS 3 Zrotation Yrotation Xrotation
				JOINT Neck
				{
					OFFSET 0.000000 0.000000 0.000000
					CHANNELS 3 Zrotation Yrotation Xrotation
					JOINT Neck1
					{
						OFFSET -0.054170 1.746240 0.172020
						CHANNELS 3 Zrotation Yrotation Xrotation
						JOINT Head
						{
							OFFSET 0.104070 1.761360 -0.123970
							CHANNELS 3 Zrotation Yrotation Xrotation
							End Site
							{
								OFFSET 0.000000 0.000000 0.000000
							}
						}
					}
				}
				JOINT LeftShoulder
				{
					OFFSET 0.000000 0.000000 0.000000
					CHANNELS 3 Zrotation Yrotation Xrotation
					JOINT LeftArm
					{
						OFFSET 3.362410 1.200890 -0.311210
						CHANNELS 3 Zrotation Yrotation Xrotation
						JOINT LeftForeArm
						{
							OFFSET 4.983000 -0.000000 -0.000000
							CHANNELS 3 Zrotation Yrotation Xrotation
							JOINT LeftHand
							{
								OFFSET 3.483560 -0.000000 -0.000000
								CHANNELS 3 Zrotation Yrotation Xrotation
								JOINT LeftFingerBase
								{
									OFFSET 0.000000 0.000000 0.000000
									CHANNELS 3 Zrotation Yrotation Xrotation
									JOINT LeftHandIndex1
									{
										OFFSET 0.715260 -0.000000 -0.000000
										CHANNELS 3 Zrotation Yrotation Xrotation
										End Site
										{
											OFFSET 0.000000 0.000000 0.000000
										}
									}
								}
								JOINT LThumb
								{
									OFFSET 0.000000 0.000000 0.000000
									CHANNELS 3 Zrotation Yrotation Xrotation
									End Site
									{
										OFFSET 0.000000 0.000000 0.000000
									}
								}
							}
						}
					}
				}
				JOINT RightShoulder
				{
					OFFSET 0.000000 0.000000 0.000000
					CHANNELS 3 Zrotation Yrotation Xrotation
					JOINT RightArm
					{
						OFFSET -3.136600 1.374050 -0.404650
						CHANNELS 3 Zrotation Yrotation Xrotation
						JOINT RightForeArm
						{
							OFFSET -5.241900 -0.000000 -0.000000
							CHANNELS 3 Zrotation Yrotation Xrotation
							JOINT RightHand
							{
								OFFSET -3.444170 -0.000000 -0.000000
								CHANNELS 3 Zrotation Yrotation Xrotation
								JOINT RightFingerBase
								{
									OFFSET 0.000000 0.000000 0.000000
									CHANNELS 3 Zrotation Yrotation Xrotation
									JOINT RightHandIndex1
									{
										OFFSET -0.622530 -0.000000 -0.000000
										CHANNELS 3 Zrotation Yrotation Xrotation
										End Site
										{
											OFFSET 0.000000 0.000000 0.000000
										}
									}
								}
								JOINT RThumb
								{
									OFFSET 0.000000 0.000000 0.000000
									CHANNELS 3 Zrotation Yrotation Xrotation
									End Site
									{
										OFFSET 0.000000 0.000000 0.000000
									}
								}
							}
						}
					}
				}
			}
		}
	}
}
MOTION
Frames: 8
Frame Time: 0.033333
-0.417189 16.930261 -0.417189 -5.786138 3.336421 1.548397 -0.871627 12.053916 0.553137 -12.826340 -5.045354 -9.842725 -6.780592 -13.325937 -33.523321 2.153135 19.295999 42.155236 0.000000 0.000000 0.000000 -2.550415 -1.137065 -20.043257 27.118593 -10.471016 15.068932 5.587463 -4.712077 4.804125 1.108182 8.635661 -32.181611 0.000000 0.000000 0.000000 -2.291836 -3.167195 21.346131 5.149770 -0.294257 -7.192307 6.565559 -1.387082 1.466262 1.678122 -0.458679 -7.936674 1.361651 0.017622 1.077904 0.000000 0.000000 0.000000 11.230799 6.504870 9.857923 -71.473230 -7.230242 11.474541 -6.390412 -86.984351 -0.541352 8.197621 -18.521752 -0.299604 8.496439 -18.426478 0.000000 0.000000 0.000000 0.000000 0.000000 0.000000 0.000000 -6.610794 -9.693467 7.466833 64.923188 9.513645 16.105647 23.865603 66.370435 0.262412 -0.094940 10.077793 0.129962 -0.105921 10.080658 0.000000 0.000000 0.000000 0.000000 0.000000 0.000000 0.000000 
-0.386187 16.975489 -0.238341 -5.446208 2.468142 1.981085 -0.705757 12.553308 0.570138 -13.508172 -4.912111 -9.793054 -6.649633 -12.963776 -32.912819 1.751336 18.389286 40.288581 0.000000 0.000000 0.000000 -2.321283 -2.762384 -19.001912 27.467405 -8.794485 13.259163 4.641318 -5.080964 8.091553 0.752067 9.662932 -32.790677 0.000000 0.000000 0.000000 -2.338262 -2.844821 20.610934 4.919419 -0.183227 -6.859181 6.393295 -1.220138 1.422551 1.746927 -0.486960 -7.830798 1.218364 0.008713 1.052778 0.000000 0.000000 0.000000 11.018712 6.574969 9.837133 -71.392063 -7.271056 11.380272 -6.074997 -87.002130 -0.553818 8.345747 -18.560346 -0.306492 8.649737 -18.461767 0.000000 0.000000 0.000000 0.000000 0.000000 0.000000 0.000000 -6.630337 -9.500068 7.488719 65.041216 9.404779 16.517537 23.232596 67.606757 0.275310 -0.163518 10.347913 0.136292 -0.175354 10.350832 0.000000 0.000000 0.000000 0.000000 0.000000 0.000000 0.000000 
-0.352980 17.022535 -0.060039 -5.087638 1.628961 2.441894 -0.579515 13.027132 0.553908 -14.193905 -4.800716 -9.775170 -6.524906 -12.581134 -32.206760 1.378420 17.451889 38.341142 0.000000 0.000000 0.000000 -2.035207 -4.314701 -17.864087 27.704418 -7.014808 11.345870 3.628200 -5.391538 11.295861 0.433555 10.561464 -33.265424 0.000000 0.000000 0.000000 -2.383703 -2.533645 19.835228 4.668153 -0.082048 -6.507762 6.225677 -1.061978 1.365994 1.814346 -0.514784 -7.726178 1.075452 -0.000116 1.027184 0.000000 0.000000 0.000000 10.808328 6.636272 9.815096 -71.305771 -7.316112 11.286574 -5.760649 -87.020992 -0.566291 8.493223 -18.598020 -0.313393 8.802391 -18.496092 0.000000 0.000000 0.000000 0.000000 0.000000 0.000000 0.000000 -6.644756 -9.314573 7.499590 65.163191 9.296268 16.909628 22.562485 68.822420 0.287858 -0.239991 10.614105 0.142439 -0.252790 10.617053 0.000000 0.000000 0.000000 0.000000 0.000000 0.000000 0.000000 
-0.317622 17.070954 0.117321 -4.714344 0.832584 2.924374 -0.492415 13.472746 0.505384 -14.879107 -4.714739 -9.789064 -6.411457 -12.179384 -31.404454 1.037188 16.489187 36.323016 0.000000 0.000000 0.000000 -1.704258 -5.774910 -16.642685 27.813769 -5.160896 9.350929 2.589888 -5.637481 14.373466 0.157484 11.328606 -33.604719 0.000000 0.000000 0.000000 -2.421699 -2.238450 19.024603 4.395101 0.006118 -6.136349 6.063097 -0.915894 1.295645 1.880517 -0.542118 -7.623375 0.933061 -0.008855 1.001131 0.000000 0.000000 0.000000 10.600068 6.687143 9.791615 -71.214421 -7.366138 11.193459 -5.447339 -87.040905 -0.578776 8.640053 -18.634744 -0.320307 8.954401 -18.529424 0.000000 0.000000 0.000000 0.000000 0.000000 0.000000 0.000000 -6.654270 -9.138941 7.499009 65.289475 9.188231 17.279974 21.857952 70.016079 0.299993 -0.324351 10.875811 0.148368 -0.338228 10.878757 0.000000 0.000000 0.000000 0.000000 0.000000 0.000000 0.000000 
-0.280686 17.120337 0.293381 -4.330065 0.090659 3.420787 -0.443414 13.888849 0.427575 -15.558890 -4.657153 -9.834490 -6.308975 -11.760100 -30.507346 0.728983 15.506227 34.247055 0.000000 0.000000 0.000000 -1.340678 -7.128157 -15.354630 27.780766 -3.267737 7.298349 1.572513 -5.821438 17.287804 -0.074205 11.966128 -33.809490 0.000000 0.000000 0.000000 -2.446194 -1.962963 18.185953 4.099299 0.078672 -5.742686 5.905992 -0.784657 1.210688 1.945604 -0.568922 -7.522916 0.791385 -0.017490 0.974595 0.000000 0.000000 0.000000 10.394390 6.726186 9.766496 -71.118103 -7.421794 11.100870 -5.135013 -87.061853 -0.591281 8.786249 -18.670479 -0.327239 9.105780 -18.561723 0.000000 0.000000 0.000000 0.000000 0.000000 0.000000 0.000000 -6.659144 -8.974818 7.486617 65.420494 9.080913 17.626799 21.121879 71.186540 0.311659 -0.416528 11.132511 0.154052 -0.431605 11.135421 0.000000 0.000000 0.000000 0.000000 0.000000 0.000000 0.000000 
-0.239017 17.172141 0.471100 -3.939614 -0.610067 3.935329 -0.441827 14.313362 0.338036 -16.229039 -4.645812 -9.950081 -6.239539 -11.309505 -29.466223 0.449305 14.472450 32.073550 0.000000 0.000000 0.000000 -0.956491 -8.494576 -13.883192 27.617189 -1.263449 5.088445 0.608305 -5.909381 20.041730 -0.280345 12.521946 -33.873182 0.000000 0.000000 0.000000 -2.435411 -1.695378 17.172426 3.869958 0.127957 -5.241725 5.704425 -0.643904 1.032115 2.196170 -0.614034 -7.461342 0.484023 -0.028602 0.789282 0.000000 0.000000 0.000000 9.934670 6.790915 9.764360 -71.093044 -7.335038 11.246997 -5.087504 -86.891020 -0.570894 8.749239 -18.665372 -0.316821 9.065885 -18.557524 0.000000 0.000000 0.000000 0.000000 0.000000 0.000000 0.000000 -6.628668 -8.800189 7.548863 65.482785 8.925870 17.824281 20.457301 72.086393 0.319166 -0.507071 11.332656 0.157674 -0.523390 11.335472 0.000000 0.000000 0.000000 0.000000 0.000000 0.000000 0.000000 
-0.195710 17.224127 0.647473 -3.540537 -1.236626 4.434875 -0.476936 14.713666 0.238196 -16.885967 -4.669453 -10.092992 -6.187510 -10.844071 -28.326778 0.202514 13.424548 29.858744 0.000000 0.000000 0.000000 -0.566558 -9.736851 -12.380265 27.286534 0.703619 2.872787 -0.278114 -5.956544 22.587091 -0.444207 12.961588 -33.811816 0.000000 0.000000 0.000000 -2.391761 -1.452382 16.124257 3.597406 0.154149 -4.644369 5.513624 -0.521646 0.809557 2.454189 -0.660700 -7.416760 0.167747 -0.040971 0.595432 0.000000 0.000000 0.000000 9.472620 6.849306 9.754942 -71.053161 -7.256522 11.397915 -5.044623 -86.719154 -0.550255 8.709552 -18.657776 -0.306260 9.023178 -18.550909 0.000000 0.000000 0.000000 0.000000 0.000000 0.000000 0.000000 -6.591611 -8.643818 7.595605 65.552961 8.772045 18.003411 19.779828 72.966148 0.326288 -0.602347 11.528297 0.161097 -0.619998 11.530987 0.000000 0.000000 0.000000 0.000000 0.000000 0.000000 0.000000 
-0.151585 17.275941 0.822488 -3.133984 -1.785126 4.907579 -0.546778 15.093485 0.136957 -17.526163 -4.728745 -10.260504 -6.146338 -10.365160 -27.093008 -0.013365 12.364977 27.615243 0.000000 0.000000 0.000000 -0.181121 -10.854828 -10.868498 26.789517 2.593706 0.679968 -1.062381 -5.978094 24.912827 -0.569835 13.295262 -33.633326 0.000000 0.000000 0.000000 -2.309179 -1.233421 15.045266 3.273015 0.156540 -3.932726 5.336850 -0.418852 0.537099 2.720255 -0.708783 -7.392608 -0.156350 -0.054636 0.392430 0.000000 0.000000 0.000000 9.010086 6.901488 9.736989 -70.998630 -7.187685 11.553981 -5.006307 -86.546660 -0.529362 8.667204 -18.647572 -0.295554 8.977671 -18.541758 0.000000 0.000000 0.000000 0.000000 0.000000 0.000000 0.000000 -6.547569 -8.507446 7.625024 65.631778 8.620464 18.164430 19.091075 73.826098 0.333039 -0.702166 11.719252 0.164327 -0.721234 11.721781 0.000000 0.000000 0.000000 0.000000 0.000000 0.000000 0.000000 
